<svg xmlns="http://www.w3.org/2000/svg" viewBox="0 0 1024 1024">
  <path d="M 894 123 L 895 123 L 895 124 L 895 125 L 894 126 L 894 127 L 894 128 L 893 129 L 893 130 L 893 131 L 892 132 L 892 133 L 892 134 L 891 135 L 891 136 L 891 137 L 890 138 L 890 139 L 890 140 L 889 141 L 889 142 L 889 143 L 888 144 L 888 145 L 888 146 L 887 147 L 887 148 L 887 149 L 887 150 L 886 151 L 886 152 L 886 153 L 885 154 L 885 155 L 885 156 L 884 157 L 884 158 L 884 159 L 883 160 L 883 161 L 883 162 L 882 163 L 882 164 L 882 165 L 881 166 L 881 167 L 881 168 L 881 169 L 880 170 L 880 171 L 880 172 L 879 173 L 879 174 L 879 175 L 878 176 L 878 177 L 878 178 L 877 179 L 877 180 L 877 181 L 877 182 L 876 183 L 876 184 L 876 185 L 875 186 L 875 187 L 875 188 L 874 189 L 874 190 L 874 191 L 873 192 L 873 193 L 873 194 L 872 195 L 872 196 L 872 197 L 872 198 L 871 199 L 871 200 L 871 201 L 870 202 L 870 203 L 870 204 L 869 205 L 869 206 L 869 207 L 869 208 L 870 209 L 871 210 L 872 211 L 873 212 L 874 213 L 874 214 L 875 215 L 876 216 L 877 217 L 878 218 L 879 219 L 879 220 L 880 221 L 881 222 L 882 223 L 882 224 L 883 225 L 884 226 L 885 227 L 886 228 L 887 229 L 887 230 L 888 231 L 889 232 L 890 233 L 890 234 L 891 235 L 892 236 L 893 237 L 893 238 L 894 239 L 895 240 L 896 241 L 896 242 L 897 243 L 898 244 L 899 245 L 899 246 L 900 247 L 901 248 L 902 249 L 902 250 L 903 251 L 904 252 L 905 253 L 905 254 L 906 255 L 907 256 L 908 257 L 908 258 L 909 259 L 910 260 L 910 261 L 911 262 L 912 263 L 913 264 L 913 265 L 914 266 L 915 267 L 916 268 L 916 269 L 917 270 L 918 271 L 918 272 L 919 273 L 920 274 L 921 275 L 921 276 L 922 277 L 923 278 L 923 279 L 924 280 L 925 281 L 926 282 L 926 283 L 927 284 L 928 285 L 928 286 L 929 287 L 930 288 L 930 289 L 931 290 L 932 291 L 932 292 L 933 293 L 934 294 L 935 295 L 935 296 L 936 297 L 937 298 L 937 299 L 938 300 L 939 301 L 940 302 L 940 303 L 941 304 L 942 305 L 942 306 L 943 307 L 944 308 L 944 309 L 945 310 L 946 311 L 946 312 L 947 313 L 948 314 L 949 315 L 949 316 L 950 317 L 951 318 L 951 319 L 952 320 L 953 321 L 953 322 L 954 323 L 955 324 L 955 325 L 956 326 L 957 327 L 958 328 L 958 329 L 959 330 L 960 331 L 960 332 L 961 333 L 962 334 L 962 335 L 963 336 L 964 337 L 964 338 L 965 339 L 966 340 L 967 341 L 967 342 L 968 343 L 969 344 L 969 345 L 970 346 L 971 347 L 971 348 L 972 349 L 973 350 L 973 351 L 974 352 L 975 353 L 975 354 L 976 355 L 977 356 L 978 357 L 978 358 L 979 359 L 980 360 L 980 361 L 981 362 L 982 363 L 982 364 L 983 365 L 984 366 L 984 367 L 985 368 L 986 369 L 986 370 L 987 371 L 988 372 L 988 373 L 989 374 L 990 375 L 990 376 L 991 377 L 992 378 L 992 379 L 993 380 L 994 381 L 994 382 L 995 383 L 996 384 L 996 385 L 997 386 L 998 387 L 998 388 L 999 389 L 1000 390 L 1000 391 L 1001 392 L 1002 393 L 1002 394 L 1003 395 L 1004 396 L 1004 397 L 1005 398 L 1006 399 L 1006 400 L 1007 401 L 1008 402 L 1008 403 L 1009 404 L 1010 405 L 1010 406 L 1011 407 L 1012 408 L 1012 409 L 1013 410 L 1014 411 L 1014 412 L 1015 413 L 1016 414 L 1016 415 L 1017 416 L 1017 417 L 1018 418 L 1018 419 L 1019 420 L 1019 421 L 1020 422 L 1020 423 L 1020 424 L 1021 425 L 1021 426 L 1021 427 L 1022 428 L 1022 429 L 1022 430 L 1022 431 L 1022 432 L 1022 433 L 1022 434 L 1022 435 L 1022 436 L 1022 437 L 1022 438 L 1022 439 L 1021 440 L 1021 441 L 1021 442 L 1020 443 L 1020 444 L 1019 445 L 1018 446 L 1018 447 L 1017 448 L 1016 449 L 1016 450 L 1015 451 L 1014 452 L 1013 453 L 1012 454 L 1011 455 L 1010 456 L 1009 456 L 1008 457 L 1007 458 L 1006 459 L 1005 460 L 1004 461 L 1003 462 L 1002 463 L 1001 463 L 1000 464 L 999 465 L 998 466 L 997 467 L 996 468 L 995 469 L 994 469 L 993 470 L 992 471 L 991 472 L 990 473 L 989 474 L 988 474 L 987 475 L 986 476 L 985 477 L 984 478 L 983 479 L 982 479 L 981 480 L 980 481 L 979 482 L 978 483 L 977 484 L 976 484 L 975 485 L 974 486 L 973 486 L 972 487 L 971 488 L 970 488 L 969 489 L 968 489 L 967 490 L 966 490 L 965 491 L 964 491 L 963 491 L 962 491 L 961 491 L 960 491 L 959 491 L 958 491 L 957 490 L 956 490 L 955 489 L 954 489 L 953 488 L 952 488 L 951 487 L 950 486 L 949 485 L 948 484 L 947 483 L 946 482 L 945 481 L 945 480 L 944 479 L 943 478 L 942 477 L 941 476 L 941 475 L 940 474 L 939 473 L 938 472 L 937 471 L 936 470 L 936 469 L 935 468 L 934 467 L 933 466 L 932 465 L 931 464 L 930 463 L 929 462 L 928 461 L 927 460 L 926 459 L 925 459 L 924 458 L 923 457 L 922 456 L 921 455 L 920 455 L 919 454 L 918 453 L 917 452 L 916 452 L 915 451 L 914 451 L 913 450 L 912 449 L 911 449 L 910 448 L 909 448 L 908 447 L 907 447 L 906 446 L 905 446 L 904 445 L 903 445 L 902 444 L 901 444 L 900 444 L 899 443 L 898 443 L 897 443 L 896 442 L 895 442 L 894 442 L 893 441 L 892 441 L 891 441 L 890 441 L 889 441 L 888 440 L 887 440 L 886 440 L 885 440 L 884 440 L 883 439 L 882 439 L 881 439 L 880 439 L 879 439 L 878 439 L 877 439 L 876 439 L 875 438 L 874 438 L 873 438 L 872 438 L 871 438 L 870 438 L 869 438 L 868 438 L 867 438 L 866 438 L 865 438 L 864 438 L 863 438 L 862 438 L 861 438 L 860 438 L 859 438 L 858 437 L 857 437 L 856 437 L 855 437 L 854 437 L 853 437 L 852 437 L 851 437 L 850 437 L 849 437 L 848 437 L 847 437 L 846 437 L 845 436 L 844 436 L 843 436 L 842 436 L 841 436 L 840 436 L 839 436 L 838 435 L 837 435 L 836 435 L 835 435 L 834 434 L 833 434 L 832 434 L 831 434 L 830 433 L 829 433 L 828 433 L 827 432 L 826 432 L 825 432 L 824 431 L 823 431 L 822 431 L 821 430 L 820 430 L 819 429 L 818 429 L 817 428 L 816 428 L 815 428 L 814 427 L 813 426 L 812 426 L 811 425 L 810 425 L 809 424 L 808 424 L 807 423 L 806 422 L 805 422 L 804 421 L 803 420 L 802 419 L 801 419 L 800 418 L 799 417 L 798 416 L 797 415 L 796 415 L 795 414 L 794 413 L 793 412 L 792 411 L 791 410 L 791 409 L 790 408 L 789 407 L 788 406 L 787 405 L 786 404 L 786 403 L 785 402 L 784 401 L 784 400 L 783 399 L 782 398 L 782 397 L 781 396 L 780 395 L 780 394 L 779 393 L 779 392 L 778 391 L 778 390 L 777 389 L 777 388 L 777 387 L 776 386 L 776 385 L 776 384 L 775 383 L 775 382 L 775 381 L 774 380 L 774 379 L 774 378 L 774 377 L 774 376 L 773 375 L 773 374 L 773 373 L 773 372 L 773 371 L 773 370 L 773 369 L 773 368 L 773 367 L 773 366 L 773 365 L 773 364 L 773 363 L 773 362 L 773 361 L 773 360 L 773 359 L 773 358 L 774 357 L 774 356 L 774 355 L 774 354 L 775 353 L 775 352 L 775 351 L 775 350 L 776 349 L 776 348 L 776 347 L 777 346 L 777 345 L 778 344 L 778 343 L 779 342 L 779 341 L 780 340 L 780 339 L 781 338 L 781 337 L 782 336 L 783 335 L 783 334 L 784 333 L 785 332 L 786 331 L 786 330 L 787 329 L 788 328 L 789 327 L 790 326 L 791 325 L 792 324 L 793 323 L 794 322 L 795 321 L 796 320 L 797 320 L 798 319 L 799 318 L 800 318 L 801 317 L 802 317 L 803 316 L 804 315 L 805 315 L 806 314 L 807 314 L 808 313 L 809 313 L 810 313 L 811 312 L 812 312 L 813 312 L 814 311 L 815 311 L 816 311 L 817 310 L 818 310 L 819 310 L 820 310 L 821 310 L 822 310 L 823 310 L 824 309 L 825 309 L 826 309 L 827 309 L 828 309 L 829 309 L 830 309 L 831 309 L 832 310 L 833 310 L 834 310 L 835 310 L 836 310 L 837 310 L 838 311 L 839 311 L 840 311 L 841 311 L 842 312 L 843 312 L 844 312 L 845 313 L 846 313 L 847 313 L 848 314 L 849 314 L 850 314 L 851 315 L 852 315 L 853 316 L 854 316 L 855 317 L 856 317 L 857 318 L 858 318 L 859 318 L 860 319 L 861 320 L 862 320 L 863 321 L 864 321 L 865 322 L 866 322 L 867 323 L 868 323 L 869 324 L 870 325 L 871 325 L 872 326 L 873 327 L 874 327 L 875 328 L 876 328 L 877 329 L 878 330 L 879 330 L 880 331 L 881 332 L 882 332 L 883 333 L 884 333 L 885 334 L 886 335 L 887 335 L 888 336 L 889 336 L 890 337 L 891 337 L 892 338 L 893 339 L 894 339 L 895 340 L 896 340 L 897 341 L 898 341 L 899 342 L 900 342 L 901 343 L 902 343 L 903 344 L 904 344 L 905 345 L 906 345 L 907 346 L 908 346 L 909 347 L 910 347 L 911 347 L 912 348 L 913 348 L 914 347 L 913 346 L 913 345 L 912 344 L 911 343 L 911 342 L 910 341 L 909 340 L 908 339 L 908 338 L 907 337 L 906 336 L 905 335 L 904 334 L 904 333 L 903 332 L 902 331 L 901 330 L 900 329 L 899 328 L 898 327 L 898 326 L 897 325 L 896 324 L 895 323 L 894 322 L 893 321 L 892 320 L 891 319 L 890 318 L 889 317 L 888 316 L 887 315 L 886 314 L 885 313 L 884 312 L 883 311 L 882 310 L 881 309 L 880 309 L 879 308 L 878 307 L 877 306 L 876 305 L 875 304 L 874 303 L 873 302 L 872 301 L 871 301 L 870 300 L 869 299 L 868 298 L 867 297 L 866 296 L 865 295 L 864 295 L 863 294 L 862 293 L 861 292 L 860 291 L 859 291 L 858 290 L 857 289 L 856 288 L 855 287 L 854 287 L 853 286 L 852 285 L 851 284 L 850 283 L 849 283 L 848 282 L 847 281 L 846 280 L 845 279 L 844 279 L 843 278 L 842 277 L 841 276 L 840 275 L 839 275 L 838 274 L 837 273 L 836 272 L 835 271 L 834 271 L 833 270 L 832 269 L 831 268 L 830 267 L 829 266 L 828 265 L 827 264 L 826 263 L 825 263 L 824 262 L 823 261 L 822 260 L 821 259 L 820 258 L 819 257 L 818 256 L 817 255 L 816 254 L 816 253 L 815 252 L 814 251 L 813 250 L 812 249 L 811 248 L 810 247 L 809 246 L 809 245 L 808 244 L 807 243 L 806 242 L 806 241 L 805 240 L 804 239 L 804 238 L 803 237 L 802 236 L 802 235 L 801 234 L 801 233 L 800 232 L 800 231 L 799 230 L 799 229 L 798 228 L 798 227 L 798 226 L 797 225 L 797 224 L 797 223 L 796 222 L 796 221 L 796 220 L 796 219 L 795 218 L 795 217 L 795 216 L 795 215 L 795 214 L 795 213 L 795 212 L 794 211 L 794 210 L 794 209 L 794 208 L 794 207 L 794 206 L 794 205 L 794 204 L 795 203 L 795 202 L 795 201 L 795 200 L 795 199 L 795 198 L 796 197 L 796 196 L 796 195 L 796 194 L 797 193 L 797 192 L 797 191 L 798 190 L 798 189 L 798 188 L 799 187 L 799 186 L 800 185 L 800 184 L 801 183 L 801 182 L 802 181 L 803 180 L 803 179 L 804 178 L 805 177 L 805 176 L 806 175 L 807 174 L 808 173 L 809 172 L 809 171 L 810 170 L 811 169 L 812 168 L 813 167 L 814 166 L 815 165 L 816 164 L 817 163 L 818 162 L 819 161 L 820 160 L 821 160 L 822 159 L 823 158 L 824 157 L 825 157 L 826 156 L 827 155 L 828 154 L 829 154 L 830 153 L 831 152 L 832 152 L 833 151 L 834 150 L 835 150 L 836 149 L 837 149 L 838 148 L 839 147 L 840 147 L 841 146 L 842 146 L 843 145 L 844 144 L 845 144 L 846 144 L 847 143 L 848 143 L 849 142 L 850 142 L 851 141 L 852 141 L 853 140 L 854 140 L 855 139 L 856 139 L 857 138 L 858 138 L 859 137 L 860 137 L 861 136 L 862 136 L 863 135 L 864 135 L 865 134 L 866 134 L 867 134 L 868 133 L 869 133 L 870 132 L 871 132 L 872 132 L 873 131 L 874 131 L 875 130 L 876 130 L 877 130 L 878 129 L 879 129 L 880 128 L 881 128 L 882 128 L 883 127 L 884 127 L 885 127 L 886 126 L 887 126 L 888 126 L 889 125 L 890 125 L 891 125 L 892 124 L 893 124 Z" fill="#f9823c" />
  <path d="M 756 154 L 757 154 L 758 154 L 759 154 L 760 154 L 761 154 L 761 155 L 761 156 L 761 157 L 761 158 L 761 159 L 761 160 L 761 161 L 761 162 L 762 163 L 762 164 L 762 165 L 762 166 L 762 167 L 762 168 L 762 169 L 762 170 L 762 171 L 763 172 L 763 173 L 763 174 L 763 175 L 763 176 L 763 177 L 763 178 L 763 179 L 763 180 L 763 181 L 764 182 L 764 183 L 764 184 L 764 185 L 764 186 L 764 187 L 764 188 L 764 189 L 764 190 L 765 191 L 765 192 L 765 193 L 765 194 L 765 195 L 765 196 L 765 197 L 765 198 L 766 199 L 766 200 L 766 201 L 766 202 L 766 203 L 766 204 L 766 205 L 766 206 L 766 207 L 767 208 L 767 209 L 767 210 L 767 211 L 767 212 L 767 213 L 767 214 L 767 215 L 767 216 L 768 217 L 768 218 L 768 219 L 768 220 L 768 221 L 768 222 L 768 223 L 768 224 L 769 225 L 769 226 L 769 227 L 769 228 L 769 229 L 769 230 L 769 231 L 770 232 L 770 233 L 770 234 L 770 235 L 770 236 L 770 237 L 769 237 L 768 237 L 767 237 L 766 237 L 765 237 L 764 237 L 763 237 L 762 237 L 761 237 L 760 237 L 759 237 L 758 237 L 757 237 L 756 237 L 755 237 L 754 237 L 753 237 L 752 238 L 751 238 L 750 238 L 749 238 L 748 238 L 747 238 L 746 238 L 745 238 L 744 238 L 743 239 L 742 239 L 741 239 L 740 239 L 739 239 L 738 239 L 737 239 L 736 239 L 735 240 L 734 240 L 733 240 L 732 240 L 731 240 L 730 240 L 729 241 L 728 241 L 727 241 L 726 241 L 725 241 L 724 242 L 723 242 L 722 242 L 721 242 L 720 242 L 719 242 L 718 243 L 717 243 L 716 243 L 715 243 L 714 243 L 713 244 L 712 244 L 711 244 L 710 244 L 709 245 L 708 245 L 707 245 L 706 245 L 705 245 L 704 246 L 703 246 L 702 246 L 701 246 L 700 247 L 699 247 L 698 247 L 697 247 L 696 248 L 695 248 L 694 248 L 693 248 L 692 248 L 692 247 L 692 246 L 692 245 L 691 244 L 691 243 L 691 242 L 691 241 L 690 240 L 690 239 L 690 238 L 690 237 L 690 236 L 689 235 L 689 234 L 689 233 L 689 232 L 688 231 L 688 230 L 688 229 L 688 228 L 688 227 L 687 226 L 687 225 L 687 224 L 687 223 L 686 222 L 686 221 L 686 220 L 686 219 L 686 218 L 685 217 L 685 216 L 685 215 L 685 214 L 685 213 L 684 212 L 684 211 L 684 210 L 684 209 L 684 208 L 683 207 L 683 206 L 683 205 L 683 204 L 682 203 L 682 202 L 682 201 L 682 200 L 682 199 L 681 198 L 681 197 L 681 196 L 681 195 L 680 194 L 680 193 L 680 192 L 680 191 L 680 190 L 679 189 L 679 188 L 679 187 L 679 186 L 678 185 L 678 184 L 678 183 L 678 182 L 678 181 L 677 180 L 677 179 L 677 178 L 677 177 L 677 176 L 676 175 L 676 174 L 676 173 L 676 172 L 675 171 L 675 170 L 675 169 L 675 168 L 675 167 L 674 166 L 675 165 L 676 165 L 677 165 L 678 165 L 679 165 L 680 164 L 681 164 L 682 164 L 683 164 L 684 164 L 685 163 L 686 163 L 687 163 L 688 163 L 689 163 L 690 162 L 691 162 L 692 162 L 693 162 L 694 162 L 695 162 L 696 161 L 697 161 L 698 161 L 699 161 L 700 161 L 701 160 L 702 160 L 703 160 L 704 160 L 705 160 L 706 160 L 707 160 L 708 159 L 709 159 L 710 159 L 711 159 L 712 159 L 713 159 L 714 159 L 715 158 L 716 158 L 717 158 L 718 158 L 719 158 L 720 158 L 721 158 L 722 158 L 723 157 L 724 157 L 725 157 L 726 157 L 727 157 L 728 157 L 729 157 L 730 157 L 731 156 L 732 156 L 733 156 L 734 156 L 735 156 L 736 156 L 737 156 L 738 156 L 739 156 L 740 156 L 741 156 L 742 155 L 743 155 L 744 155 L 745 155 L 746 155 L 747 155 L 748 155 L 749 155 L 750 155 L 751 155 L 752 155 L 753 155 L 754 155 L 755 155 Z" fill="#fb963c" />
  <path d="M 606 180 L 607 180 L 608 180 L 609 181 L 610 182 L 611 183 L 612 184 L 612 185 L 613 186 L 614 187 L 615 188 L 616 189 L 617 190 L 617 191 L 618 192 L 619 193 L 620 194 L 621 195 L 622 196 L 622 197 L 623 198 L 624 199 L 625 200 L 626 201 L 627 202 L 628 203 L 628 204 L 629 205 L 630 206 L 631 207 L 632 208 L 633 209 L 633 210 L 634 211 L 635 212 L 636 213 L 637 214 L 638 215 L 639 216 L 639 217 L 640 218 L 641 219 L 642 220 L 643 221 L 643 222 L 644 223 L 645 224 L 646 225 L 647 226 L 648 227 L 649 228 L 649 229 L 650 230 L 651 231 L 652 232 L 653 233 L 654 234 L 655 235 L 655 236 L 656 237 L 657 238 L 658 239 L 659 240 L 660 241 L 660 242 L 661 243 L 662 244 L 663 245 L 664 246 L 665 247 L 665 248 L 666 249 L 667 250 L 668 251 L 669 252 L 670 253 L 671 254 L 671 255 L 672 256 L 673 257 L 674 258 L 675 259 L 674 260 L 673 261 L 672 262 L 671 263 L 670 264 L 669 265 L 668 265 L 667 266 L 666 267 L 665 268 L 664 269 L 663 270 L 662 271 L 661 272 L 660 273 L 659 274 L 658 275 L 657 275 L 656 276 L 655 277 L 654 278 L 653 279 L 652 280 L 651 281 L 650 282 L 649 283 L 648 284 L 647 284 L 646 285 L 645 286 L 644 287 L 643 288 L 642 289 L 641 290 L 640 291 L 639 292 L 638 293 L 637 294 L 636 295 L 635 295 L 634 296 L 633 297 L 632 298 L 631 299 L 630 300 L 629 301 L 628 302 L 627 303 L 626 303 L 625 304 L 624 305 L 623 306 L 622 307 L 621 308 L 620 309 L 619 310 L 618 311 L 617 312 L 616 313 L 615 313 L 614 314 L 613 315 L 612 316 L 611 317 L 610 318 L 609 319 L 608 320 L 607 321 L 606 322 L 605 323 L 604 323 L 603 324 L 602 325 L 601 326 L 600 327 L 599 328 L 598 329 L 597 330 L 596 331 L 595 332 L 594 333 L 593 334 L 592 335 L 591 336 L 590 336 L 589 335 L 588 334 L 587 333 L 586 332 L 585 331 L 584 330 L 583 329 L 582 328 L 581 327 L 581 326 L 580 325 L 579 324 L 578 323 L 577 322 L 576 321 L 575 320 L 574 319 L 574 318 L 573 317 L 572 316 L 571 315 L 570 314 L 569 313 L 568 312 L 567 311 L 566 310 L 565 309 L 565 308 L 564 307 L 563 306 L 562 305 L 561 304 L 560 303 L 559 302 L 558 301 L 558 300 L 557 299 L 556 298 L 555 297 L 554 296 L 553 295 L 552 294 L 551 293 L 550 292 L 550 291 L 549 290 L 548 289 L 547 288 L 546 287 L 545 286 L 544 285 L 543 284 L 542 283 L 541 282 L 541 281 L 540 280 L 539 279 L 538 278 L 537 277 L 536 276 L 535 275 L 534 274 L 533 273 L 533 272 L 532 271 L 531 270 L 530 269 L 529 268 L 528 267 L 527 266 L 526 265 L 525 264 L 525 263 L 524 262 L 523 261 L 522 260 L 521 259 L 520 258 L 519 257 L 518 256 L 517 255 L 517 254 L 518 253 L 519 252 L 520 252 L 521 251 L 522 250 L 523 249 L 524 248 L 525 248 L 526 247 L 527 246 L 528 245 L 529 244 L 530 243 L 531 243 L 532 242 L 533 241 L 534 240 L 535 239 L 536 238 L 537 238 L 538 237 L 539 236 L 540 235 L 541 234 L 542 233 L 543 233 L 544 232 L 545 231 L 546 230 L 547 229 L 548 228 L 549 227 L 550 227 L 551 226 L 552 225 L 553 224 L 554 223 L 555 222 L 556 222 L 557 221 L 558 220 L 559 219 L 560 218 L 561 217 L 562 217 L 563 216 L 564 215 L 565 214 L 566 213 L 567 212 L 568 211 L 569 211 L 570 210 L 571 209 L 572 208 L 573 207 L 574 207 L 575 206 L 576 205 L 577 204 L 578 203 L 579 202 L 580 202 L 581 201 L 582 200 L 583 199 L 584 198 L 585 197 L 586 197 L 587 196 L 588 195 L 589 194 L 590 193 L 591 193 L 592 192 L 593 191 L 594 190 L 595 189 L 596 188 L 597 188 L 598 187 L 599 186 L 600 185 L 601 184 L 602 184 L 603 183 L 604 182 L 605 181 Z" fill="#f97c3a" />
  <path d="M 465 300 L 466 300 L 467 301 L 468 301 L 469 301 L 470 302 L 471 302 L 472 303 L 473 303 L 474 304 L 475 304 L 476 305 L 477 305 L 478 306 L 479 306 L 480 307 L 481 307 L 482 308 L 483 308 L 484 309 L 485 309 L 486 310 L 487 310 L 488 311 L 489 311 L 490 312 L 491 312 L 492 313 L 493 313 L 494 314 L 495 314 L 496 315 L 497 315 L 498 316 L 499 316 L 500 317 L 501 317 L 502 318 L 503 318 L 504 319 L 505 319 L 506 319 L 507 320 L 508 320 L 509 321 L 510 321 L 511 322 L 512 322 L 513 323 L 514 323 L 515 324 L 516 324 L 517 325 L 518 325 L 519 326 L 520 326 L 521 327 L 522 327 L 523 328 L 524 328 L 525 329 L 526 329 L 527 330 L 528 330 L 529 331 L 530 331 L 531 332 L 532 332 L 533 332 L 534 333 L 535 333 L 536 334 L 537 334 L 538 335 L 539 335 L 540 336 L 541 336 L 542 337 L 543 337 L 544 338 L 545 338 L 546 339 L 547 339 L 548 340 L 549 340 L 550 341 L 551 341 L 552 342 L 553 342 L 554 342 L 555 343 L 556 343 L 557 344 L 558 344 L 559 345 L 560 345 L 561 346 L 562 346 L 563 347 L 564 347 L 565 348 L 566 348 L 567 349 L 568 349 L 569 350 L 570 350 L 571 351 L 572 351 L 573 352 L 574 352 L 575 353 L 576 353 L 576 354 L 575 355 L 575 356 L 574 357 L 574 358 L 574 359 L 573 360 L 573 361 L 572 362 L 572 363 L 572 364 L 571 365 L 571 366 L 570 367 L 570 368 L 570 369 L 569 370 L 569 371 L 568 372 L 568 373 L 568 374 L 567 375 L 567 376 L 566 377 L 566 378 L 566 379 L 565 380 L 565 381 L 565 382 L 564 383 L 564 384 L 563 385 L 563 386 L 563 387 L 562 388 L 562 389 L 562 390 L 561 391 L 561 392 L 560 393 L 560 394 L 560 395 L 559 396 L 559 397 L 559 398 L 558 399 L 558 400 L 557 401 L 557 402 L 557 403 L 556 404 L 556 405 L 556 406 L 555 407 L 555 408 L 554 409 L 554 410 L 554 411 L 553 412 L 553 413 L 553 414 L 552 415 L 552 416 L 551 417 L 551 418 L 551 419 L 550 420 L 550 421 L 550 422 L 549 423 L 549 424 L 548 425 L 548 426 L 548 427 L 547 428 L 547 429 L 547 430 L 546 431 L 546 432 L 545 433 L 545 434 L 545 435 L 544 436 L 544 437 L 544 438 L 543 439 L 543 440 L 542 441 L 542 442 L 542 443 L 541 444 L 541 445 L 541 446 L 540 447 L 540 448 L 539 449 L 539 450 L 539 451 L 538 452 L 538 453 L 538 454 L 537 455 L 537 456 L 536 457 L 536 458 L 536 459 L 535 460 L 535 461 L 535 462 L 534 463 L 534 464 L 533 465 L 533 466 L 533 467 L 532 468 L 532 469 L 532 470 L 531 471 L 530 470 L 529 470 L 528 469 L 527 469 L 526 468 L 525 468 L 524 467 L 523 467 L 522 467 L 521 466 L 520 466 L 519 465 L 518 465 L 517 465 L 516 464 L 515 464 L 514 463 L 513 463 L 512 463 L 511 462 L 510 462 L 509 461 L 508 461 L 507 460 L 506 460 L 505 459 L 504 459 L 503 459 L 502 458 L 501 458 L 500 457 L 499 457 L 498 456 L 497 456 L 496 456 L 495 455 L 494 455 L 493 454 L 492 454 L 491 454 L 490 453 L 489 453 L 488 452 L 487 452 L 486 451 L 485 451 L 484 451 L 483 450 L 482 450 L 481 449 L 480 449 L 479 448 L 478 448 L 477 448 L 476 447 L 475 447 L 474 446 L 473 446 L 472 445 L 471 445 L 470 445 L 469 444 L 468 444 L 467 443 L 466 443 L 465 443 L 464 442 L 463 442 L 462 441 L 461 441 L 460 440 L 459 440 L 458 440 L 457 439 L 456 439 L 455 438 L 454 438 L 453 437 L 452 437 L 451 437 L 450 436 L 449 436 L 448 435 L 447 435 L 446 434 L 445 434 L 444 434 L 443 433 L 442 433 L 441 432 L 440 432 L 439 432 L 438 431 L 437 431 L 436 430 L 435 430 L 434 429 L 433 429 L 432 429 L 431 428 L 430 428 L 429 427 L 428 427 L 427 426 L 426 426 L 425 426 L 424 425 L 423 425 L 422 424 L 421 424 L 420 423 L 419 423 L 418 422 L 417 422 L 416 422 L 415 421 L 414 421 L 413 420 L 412 420 L 411 419 L 411 418 L 411 417 L 412 416 L 412 415 L 412 414 L 413 413 L 413 412 L 414 411 L 414 410 L 415 409 L 415 408 L 415 407 L 416 406 L 416 405 L 417 404 L 417 403 L 418 402 L 418 401 L 419 400 L 419 399 L 419 398 L 420 397 L 420 396 L 421 395 L 421 394 L 422 393 L 422 392 L 423 391 L 423 390 L 424 389 L 424 388 L 425 387 L 425 386 L 426 385 L 426 384 L 426 383 L 427 382 L 427 381 L 428 380 L 428 379 L 429 378 L 429 377 L 430 376 L 430 375 L 431 374 L 431 373 L 432 372 L 432 371 L 432 370 L 433 369 L 433 368 L 434 367 L 434 366 L 435 365 L 435 364 L 436 363 L 436 362 L 437 361 L 437 360 L 438 359 L 438 358 L 439 357 L 439 356 L 439 355 L 440 354 L 440 353 L 441 352 L 441 351 L 442 350 L 442 349 L 443 348 L 443 347 L 444 346 L 444 345 L 444 344 L 445 343 L 445 342 L 446 341 L 446 340 L 447 339 L 447 338 L 448 337 L 448 336 L 449 335 L 449 334 L 450 333 L 450 332 L 451 331 L 451 330 L 452 329 L 452 328 L 452 327 L 453 326 L 453 325 L 454 324 L 454 323 L 455 322 L 455 321 L 456 320 L 456 319 L 457 318 L 457 317 L 457 316 L 458 315 L 458 314 L 459 313 L 459 312 L 460 311 L 460 310 L 461 309 L 461 308 L 462 307 L 462 306 L 463 305 L 463 304 L 464 303 L 464 302 L 464 301 L 410 419 Z" fill="#f5512d" />
  <path d="M 126 446 L 127 447 L 128 448 L 129 449 L 130 450 L 131 451 L 132 452 L 133 453 L 134 454 L 135 455 L 136 456 L 137 457 L 138 458 L 139 459 L 139 460 L 140 461 L 141 462 L 142 463 L 143 464 L 144 465 L 145 466 L 146 467 L 147 468 L 148 469 L 149 470 L 150 471 L 151 472 L 152 473 L 153 474 L 154 475 L 154 476 L 155 477 L 156 478 L 157 479 L 158 480 L 159 481 L 160 482 L 161 483 L 162 484 L 163 485 L 164 486 L 165 487 L 166 488 L 167 489 L 168 490 L 169 491 L 170 492 L 170 493 L 171 494 L 172 495 L 173 496 L 174 497 L 175 498 L 176 499 L 177 500 L 178 501 L 179 502 L 180 503 L 181 504 L 182 505 L 183 506 L 184 507 L 185 508 L 186 509 L 186 510 L 187 511 L 188 512 L 189 513 L 190 514 L 191 515 L 192 516 L 193 517 L 194 518 L 195 519 L 196 520 L 197 521 L 198 522 L 199 523 L 200 524 L 201 525 L 202 526 L 203 527 L 204 528 L 205 529 L 205 530 L 206 531 L 207 532 L 208 533 L 209 534 L 210 535 L 211 536 L 212 537 L 213 538 L 214 539 L 215 540 L 216 541 L 217 542 L 218 543 L 218 544 L 219 545 L 220 546 L 221 547 L 222 548 L 223 549 L 224 550 L 225 551 L 226 552 L 227 553 L 228 554 L 229 555 L 230 556 L 231 557 L 232 558 L 232 559 L 233 560 L 234 561 L 235 562 L 236 563 L 237 564 L 238 565 L 239 566 L 239 567 L 238 568 L 237 569 L 236 570 L 235 571 L 234 572 L 233 573 L 233 574 L 232 575 L 231 576 L 230 577 L 229 578 L 228 579 L 227 580 L 227 581 L 226 582 L 225 583 L 224 584 L 223 585 L 222 586 L 221 587 L 220 588 L 220 589 L 219 590 L 218 591 L 217 592 L 216 593 L 215 594 L 214 595 L 214 596 L 213 597 L 212 598 L 211 599 L 210 600 L 209 601 L 208 602 L 207 603 L 207 604 L 206 605 L 205 606 L 204 607 L 203 608 L 202 609 L 201 610 L 200 611 L 200 612 L 199 613 L 198 614 L 197 615 L 196 616 L 195 617 L 194 618 L 193 619 L 193 620 L 192 621 L 191 622 L 190 623 L 189 624 L 188 625 L 187 626 L 187 627 L 186 628 L 185 629 L 184 630 L 183 631 L 182 632 L 181 633 L 180 634 L 180 635 L 179 636 L 178 637 L 177 638 L 176 639 L 175 640 L 174 641 L 174 642 L 173 643 L 172 644 L 171 645 L 170 646 L 169 647 L 168 648 L 168 649 L 167 650 L 166 651 L 165 652 L 164 653 L 163 654 L 162 655 L 162 656 L 161 657 L 160 658 L 159 659 L 158 660 L 157 661 L 156 662 L 156 663 L 155 664 L 154 665 L 153 666 L 152 667 L 151 668 L 150 669 L 149 670 L 149 671 L 148 672 L 147 673 L 146 674 L 145 675 L 144 676 L 143 677 L 143 678 L 142 679 L 141 680 L 140 681 L 139 682 L 138 683 L 137 684 L 137 685 L 136 686 L 135 687 L 134 688 L 133 689 L 132 690 L 131 691 L 130 692 L 129 693 L 129 694 L 128 695 L 127 696 L 126 697 L 125 698 L 124 699 L 123 700 L 122 701 L 122 702 L 121 703 L 120 704 L 119 705 L 118 706 L 117 707 L 116 708 L 115 709 L 114 709 L 113 709 L 113 708 L 112 707 L 111 706 L 110 705 L 109 704 L 108 703 L 107 702 L 106 701 L 106 700 L 105 699 L 104 698 L 103 697 L 102 696 L 101 695 L 100 694 L 100 693 L 99 692 L 98 691 L 97 690 L 96 689 L 95 688 L 94 687 L 93 686 L 93 685 L 92 684 L 91 683 L 90 682 L 89 681 L 88 680 L 88 679 L 87 678 L 86 677 L 85 676 L 84 675 L 83 674 L 82 673 L 82 672 L 81 671 L 80 670 L 79 669 L 78 668 L 77 667 L 76 666 L 76 665 L 75 664 L 74 663 L 73 662 L 72 661 L 71 660 L 70 659 L 70 658 L 69 657 L 68 656 L 67 655 L 66 654 L 65 653 L 64 652 L 64 651 L 63 650 L 62 649 L 61 648 L 60 647 L 59 646 L 58 645 L 57 644 L 57 643 L 56 642 L 55 641 L 54 640 L 53 639 L 52 638 L 51 637 L 51 636 L 50 635 L 49 634 L 48 633 L 47 632 L 46 631 L 46 630 L 45 629 L 44 628 L 43 627 L 42 626 L 41 625 L 40 624 L 39 623 L 39 622 L 38 621 L 37 620 L 36 619 L 35 618 L 34 617 L 34 616 L 33 615 L 32 614 L 31 613 L 30 612 L 29 611 L 28 610 L 28 609 L 27 608 L 26 607 L 25 606 L 24 605 L 23 604 L 22 603 L 21 602 L 21 601 L 20 600 L 19 599 L 18 598 L 17 597 L 16 596 L 15 595 L 14 594 L 13 593 L 13 592 L 12 591 L 11 590 L 10 589 L 9 588 L 8 587 L 7 586 L 7 585 L 6 584 L 5 583 L 4 582 L 3 581 L 2 580 L 3 579 L 4 578 L 5 577 L 6 576 L 7 575 L 8 574 L 9 573 L 10 572 L 11 571 L 12 570 L 13 569 L 13 568 L 14 567 L 15 566 L 16 565 L 17 564 L 18 563 L 19 562 L 20 561 L 21 560 L 22 559 L 23 558 L 23 557 L 24 556 L 25 555 L 26 554 L 27 553 L 28 552 L 29 551 L 30 550 L 31 549 L 32 548 L 33 547 L 34 546 L 35 545 L 35 544 L 36 543 L 37 542 L 38 541 L 39 540 L 40 539 L 41 538 L 42 537 L 43 536 L 44 535 L 45 534 L 46 533 L 46 532 L 47 531 L 48 530 L 49 529 L 50 528 L 51 527 L 52 526 L 53 525 L 54 524 L 55 523 L 56 522 L 56 521 L 57 520 L 58 519 L 59 518 L 60 517 L 61 516 L 62 515 L 63 514 L 64 513 L 65 512 L 66 511 L 67 510 L 68 509 L 69 508 L 70 507 L 70 506 L 71 505 L 72 504 L 73 503 L 74 502 L 75 501 L 76 500 L 77 499 L 78 498 L 79 497 L 80 496 L 81 495 L 82 494 L 82 493 L 83 492 L 84 491 L 85 490 L 86 489 L 87 488 L 88 487 L 89 486 L 90 485 L 91 484 L 92 483 L 93 482 L 94 481 L 94 480 L 95 479 L 96 478 L 97 477 L 98 476 L 99 475 L 100 474 L 101 473 L 102 472 L 103 471 L 104 470 L 105 469 L 106 468 L 107 467 L 108 466 L 108 465 L 109 464 L 110 463 L 111 462 L 112 461 L 113 460 L 114 459 L 115 458 L 116 457 L 117 456 L 118 455 L 119 454 L 120 453 L 121 452 L 121 451 L 122 450 L 123 449 L 124 448 L 125 447 Z" fill="#dd362c" />
  <path d="M 409 468 L 409 469 L 408 470 L 408 471 L 408 472 L 407 473 L 407 474 L 406 475 L 406 476 L 406 477 L 405 478 L 405 479 L 404 480 L 404 481 L 404 482 L 403 483 L 403 484 L 402 485 L 402 486 L 402 487 L 401 488 L 401 489 L 400 490 L 400 491 L 399 492 L 399 493 L 398 494 L 398 495 L 397 496 L 397 497 L 397 498 L 396 499 L 396 500 L 395 501 L 395 502 L 394 503 L 393 504 L 393 505 L 392 506 L 392 507 L 391 508 L 391 509 L 390 510 L 389 511 L 389 512 L 388 513 L 388 514 L 387 515 L 386 516 L 386 517 L 385 518 L 385 519 L 384 520 L 383 521 L 383 522 L 382 523 L 381 524 L 381 525 L 380 526 L 379 527 L 378 528 L 378 529 L 377 530 L 376 531 L 375 532 L 375 533 L 374 534 L 373 535 L 372 536 L 372 537 L 371 538 L 370 539 L 369 540 L 368 541 L 368 542 L 367 543 L 366 544 L 365 545 L 364 546 L 363 547 L 362 548 L 362 549 L 361 550 L 360 551 L 359 552 L 358 553 L 357 554 L 356 555 L 355 556 L 354 557 L 353 558 L 352 559 L 351 560 L 350 561 L 349 562 L 349 563 L 350 564 L 350 565 L 351 566 L 352 567 L 352 568 L 353 569 L 354 570 L 354 571 L 355 572 L 355 573 L 356 574 L 357 575 L 357 576 L 358 577 L 359 578 L 359 579 L 360 580 L 361 581 L 361 582 L 362 583 L 362 584 L 363 585 L 364 586 L 364 587 L 365 588 L 366 589 L 366 590 L 367 591 L 368 592 L 368 593 L 369 594 L 370 595 L 370 596 L 371 597 L 371 598 L 372 599 L 373 600 L 373 601 L 374 602 L 375 603 L 375 604 L 376 605 L 377 606 L 377 607 L 378 608 L 379 609 L 379 610 L 380 611 L 381 612 L 381 613 L 382 614 L 382 615 L 383 616 L 384 617 L 384 618 L 385 619 L 386 620 L 386 621 L 387 622 L 388 623 L 388 624 L 389 625 L 390 626 L 390 627 L 391 628 L 392 629 L 392 630 L 393 631 L 394 632 L 394 633 L 395 634 L 395 635 L 396 636 L 397 637 L 397 638 L 398 639 L 399 640 L 399 641 L 400 642 L 401 643 L 401 644 L 402 645 L 403 646 L 403 647 L 404 648 L 405 649 L 405 650 L 406 651 L 407 652 L 407 653 L 408 654 L 409 655 L 409 656 L 410 657 L 411 658 L 411 659 L 412 660 L 413 661 L 413 662 L 414 663 L 415 664 L 415 665 L 416 666 L 417 667 L 417 668 L 418 669 L 419 670 L 419 671 L 420 672 L 421 673 L 421 674 L 422 675 L 423 676 L 423 677 L 424 678 L 425 679 L 425 680 L 426 681 L 427 682 L 427 683 L 428 684 L 429 685 L 429 686 L 430 687 L 431 688 L 432 689 L 432 690 L 433 691 L 433 692 L 434 692 L 435 691 L 436 691 L 437 690 L 438 689 L 439 688 L 440 687 L 441 686 L 442 685 L 443 684 L 444 683 L 445 682 L 446 681 L 447 680 L 448 679 L 449 678 L 450 677 L 451 676 L 452 675 L 453 674 L 454 673 L 455 672 L 456 671 L 457 670 L 458 669 L 459 668 L 459 667 L 460 666 L 461 665 L 462 664 L 463 663 L 464 662 L 465 661 L 466 660 L 466 659 L 467 658 L 468 657 L 469 656 L 470 655 L 471 654 L 472 653 L 473 652 L 473 651 L 474 650 L 475 649 L 476 648 L 476 647 L 477 646 L 478 645 L 479 644 L 480 643 L 480 642 L 481 641 L 482 640 L 483 639 L 483 638 L 484 637 L 485 636 L 486 635 L 486 634 L 487 633 L 488 632 L 489 631 L 489 630 L 490 629 L 491 628 L 491 627 L 492 626 L 493 625 L 493 624 L 494 623 L 495 622 L 495 621 L 496 620 L 497 619 L 497 618 L 498 617 L 499 616 L 499 615 L 500 614 L 501 613 L 501 612 L 502 611 L 502 610 L 503 609 L 504 608 L 504 607 L 505 606 L 505 605 L 506 604 L 506 603 L 507 602 L 508 601 L 508 600 L 509 599 L 509 598 L 510 597 L 510 596 L 511 595 L 512 594 L 512 593 L 513 592 L 513 591 L 514 590 L 514 589 L 515 588 L 515 587 L 516 586 L 516 585 L 517 584 L 517 583 L 518 582 L 518 581 L 519 580 L 519 579 L 520 578 L 520 577 L 521 576 L 521 575 L 522 574 L 522 573 L 522 572 L 523 571 L 523 570 L 524 569 L 524 568 L 525 567 L 525 566 L 525 565 L 526 564 L 526 563 L 527 562 L 527 561 L 528 560 L 528 559 L 528 558 L 529 557 L 529 556 L 529 555 L 530 554 L 530 553 L 530 552 L 531 551 L 531 550 L 532 549 L 532 548 L 532 547 L 533 546 L 533 545 L 533 544 L 534 543 L 534 542 L 534 541 L 535 540 L 535 539 L 535 538 L 535 537 L 536 536 L 536 535 L 536 534 L 537 533 L 537 532 L 537 531 L 538 530 L 537 529 L 536 529 L 535 528 L 534 528 L 533 527 L 532 527 L 531 526 L 530 526 L 529 525 L 528 525 L 527 524 L 526 524 L 525 523 L 524 523 L 523 522 L 522 522 L 521 521 L 520 521 L 519 521 L 518 520 L 517 520 L 516 519 L 515 519 L 514 518 L 513 518 L 512 517 L 511 517 L 510 516 L 509 516 L 508 515 L 507 515 L 506 514 L 505 514 L 504 513 L 503 513 L 502 512 L 501 512 L 500 511 L 499 511 L 498 510 L 497 510 L 496 509 L 495 509 L 494 508 L 493 508 L 492 507 L 491 507 L 490 506 L 489 506 L 488 505 L 487 505 L 486 505 L 485 504 L 484 503 L 483 503 L 482 502 L 481 502 L 480 501 L 479 501 L 478 501 L 477 500 L 476 500 L 475 499 L 474 499 L 473 498 L 472 498 L 471 497 L 470 497 L 469 496 L 468 496 L 467 495 L 466 495 L 465 494 L 464 494 L 463 493 L 462 493 L 461 492 L 460 492 L 459 491 L 458 491 L 457 490 L 456 490 L 455 490 L 454 489 L 453 489 L 452 488 L 451 487 L 450 487 L 449 487 L 448 486 L 447 486 L 446 485 L 445 485 L 444 484 L 443 484 L 442 483 L 441 483 L 440 482 L 439 482 L 438 481 L 437 481 L 436 480 L 435 480 L 434 479 L 433 479 L 432 478 L 431 478 L 430 478 L 429 477 L 428 476 L 427 476 L 426 476 L 425 475 L 424 475 L 423 474 L 422 474 L 421 473 L 420 473 L 419 472 L 418 472 L 417 471 L 416 471 L 415 470 L 414 470 L 413 469 L 412 469 L 411 468 L 410 468 Z" fill="#f65d30" />
  <path d="M 242 567 L 242 568 L 241 569 L 242 570 L 241 571 L 241 572 L 241 573 L 241 574 L 241 575 L 241 576 L 241 577 L 241 578 L 241 579 L 241 580 L 241 581 L 241 582 L 241 583 L 241 584 L 241 585 L 241 586 L 241 587 L 241 588 L 241 589 L 240 590 L 240 591 L 240 592 L 240 593 L 240 594 L 240 595 L 240 596 L 240 597 L 240 598 L 240 599 L 240 600 L 240 601 L 240 602 L 240 603 L 240 604 L 240 605 L 240 606 L 240 607 L 240 608 L 240 609 L 240 610 L 240 611 L 239 612 L 239 613 L 239 614 L 239 615 L 239 616 L 239 617 L 239 618 L 239 619 L 239 620 L 239 621 L 239 622 L 239 623 L 239 624 L 239 625 L 239 626 L 239 627 L 239 628 L 239 629 L 239 630 L 239 631 L 238 632 L 238 633 L 238 634 L 238 635 L 238 636 L 238 637 L 238 638 L 238 639 L 238 640 L 238 641 L 238 642 L 238 643 L 238 644 L 238 645 L 238 646 L 238 647 L 238 648 L 238 649 L 238 650 L 238 651 L 238 652 L 238 653 L 238 654 L 237 655 L 237 656 L 237 657 L 237 658 L 237 659 L 237 660 L 237 661 L 237 662 L 237 663 L 237 664 L 237 665 L 237 666 L 237 667 L 237 668 L 237 669 L 237 670 L 237 671 L 237 672 L 237 673 L 236 674 L 236 675 L 236 676 L 236 677 L 236 678 L 236 679 L 236 680 L 236 681 L 236 682 L 236 683 L 236 684 L 236 685 L 236 686 L 236 687 L 236 688 L 236 689 L 236 690 L 236 691 L 236 692 L 236 693 L 236 694 L 236 695 L 236 696 L 235 697 L 235 698 L 235 699 L 235 700 L 235 701 L 235 702 L 235 703 L 235 704 L 235 705 L 235 706 L 235 707 L 235 708 L 235 709 L 235 710 L 235 711 L 235 712 L 235 713 L 235 714 L 235 715 L 235 716 L 235 717 L 234 718 L 234 719 L 234 720 L 234 721 L 234 722 L 234 723 L 234 724 L 234 725 L 234 726 L 234 727 L 234 728 L 234 729 L 234 730 L 234 731 L 234 732 L 234 733 L 234 734 L 234 735 L 234 736 L 234 737 L 234 738 L 233 739 L 233 740 L 233 741 L 233 742 L 233 743 L 233 744 L 233 745 L 233 746 L 233 747 L 233 748 L 233 749 L 233 750 L 233 751 L 233 752 L 233 753 L 233 754 L 233 755 L 232 756 L 232 757 L 233 758 L 234 758 L 235 758 L 236 759 L 237 759 L 238 759 L 239 759 L 240 759 L 241 759 L 242 759 L 243 760 L 244 760 L 245 760 L 246 760 L 247 760 L 248 760 L 249 760 L 250 760 L 251 760 L 252 761 L 253 761 L 254 761 L 255 761 L 256 761 L 257 761 L 258 761 L 259 761 L 260 761 L 261 761 L 262 761 L 263 761 L 264 762 L 265 762 L 266 762 L 267 762 L 268 762 L 269 762 L 270 762 L 271 762 L 272 762 L 273 762 L 274 762 L 275 762 L 276 762 L 277 762 L 278 762 L 279 762 L 280 762 L 281 762 L 282 762 L 283 762 L 284 762 L 285 762 L 286 762 L 287 762 L 288 762 L 289 762 L 290 762 L 291 762 L 292 762 L 293 762 L 294 762 L 295 762 L 296 762 L 297 762 L 298 762 L 299 762 L 300 762 L 301 762 L 302 762 L 303 762 L 304 762 L 305 762 L 306 761 L 307 761 L 308 761 L 309 761 L 310 761 L 311 761 L 312 761 L 313 761 L 314 761 L 315 761 L 316 761 L 317 761 L 318 761 L 319 761 L 320 760 L 321 760 L 322 760 L 323 760 L 324 760 L 325 760 L 326 760 L 327 760 L 328 760 L 329 759 L 330 759 L 331 759 L 332 759 L 333 759 L 334 759 L 335 759 L 336 758 L 337 758 L 338 758 L 339 758 L 340 758 L 341 758 L 342 757 L 343 757 L 344 757 L 345 757 L 346 757 L 347 757 L 348 756 L 349 756 L 350 756 L 351 756 L 352 756 L 353 755 L 354 755 L 355 755 L 356 755 L 357 755 L 358 754 L 359 754 L 360 754 L 361 754 L 362 753 L 363 753 L 364 753 L 365 753 L 366 752 L 367 752 L 367 751 L 366 750 L 366 749 L 366 748 L 366 747 L 366 746 L 366 745 L 366 744 L 365 743 L 365 742 L 365 741 L 365 740 L 365 739 L 365 738 L 364 737 L 364 736 L 364 735 L 364 734 L 364 733 L 364 732 L 363 731 L 363 730 L 363 729 L 363 728 L 363 727 L 363 726 L 362 725 L 362 724 L 362 723 L 362 722 L 362 721 L 362 720 L 361 719 L 361 718 L 361 717 L 361 716 L 361 715 L 361 714 L 360 713 L 360 712 L 360 711 L 360 710 L 360 709 L 360 708 L 360 707 L 359 706 L 359 705 L 359 704 L 359 703 L 359 702 L 359 701 L 358 700 L 358 699 L 358 698 L 358 697 L 358 696 L 357 695 L 357 694 L 357 693 L 357 692 L 357 691 L 357 690 L 357 689 L 356 688 L 356 687 L 356 686 L 356 685 L 356 684 L 355 683 L 355 682 L 355 681 L 355 680 L 355 679 L 355 678 L 354 677 L 354 676 L 354 675 L 354 674 L 354 673 L 354 672 L 353 671 L 353 670 L 353 669 L 353 668 L 353 667 L 353 666 L 352 665 L 352 664 L 352 663 L 352 662 L 352 661 L 352 660 L 351 659 L 351 658 L 351 657 L 351 656 L 351 655 L 351 654 L 350 653 L 350 652 L 350 651 L 350 650 L 350 649 L 350 648 L 349 647 L 349 646 L 349 645 L 349 644 L 349 643 L 348 642 L 348 641 L 348 640 L 348 639 L 348 638 L 348 637 L 348 636 L 347 635 L 347 634 L 347 633 L 347 632 L 347 631 L 347 630 L 346 629 L 346 628 L 346 627 L 346 626 L 346 625 L 345 624 L 345 623 L 345 622 L 345 621 L 345 620 L 345 619 L 344 618 L 344 617 L 344 616 L 344 615 L 344 614 L 344 613 L 343 612 L 343 611 L 343 610 L 343 609 L 343 608 L 343 607 L 342 606 L 342 605 L 342 604 L 342 603 L 342 602 L 342 601 L 341 600 L 341 599 L 341 598 L 341 597 L 341 596 L 340 595 L 340 594 L 340 593 L 340 592 L 340 591 L 340 590 L 339 589 L 339 588 L 339 587 L 339 586 L 339 585 L 339 584 L 338 583 L 338 582 L 338 581 L 338 580 L 338 579 L 338 578 L 337 577 L 337 576 L 337 575 L 337 574 L 337 573 L 337 572 L 337 571 L 336 570 L 336 569 L 335 569 L 334 569 L 333 569 L 332 569 L 331 569 L 330 569 L 329 569 L 328 569 L 327 569 L 326 569 L 325 569 L 324 569 L 323 569 L 322 569 L 321 569 L 320 569 L 319 569 L 318 569 L 317 569 L 316 570 L 315 570 L 314 570 L 313 570 L 312 570 L 311 570 L 310 570 L 309 570 L 308 570 L 307 570 L 306 570 L 305 570 L 304 570 L 303 570 L 302 570 L 301 570 L 300 570 L 299 570 L 298 570 L 297 570 L 296 570 L 295 570 L 294 570 L 293 570 L 292 570 L 291 570 L 290 570 L 289 570 L 288 570 L 287 570 L 286 570 L 285 570 L 284 570 L 283 570 L 282 570 L 281 570 L 280 569 L 279 570 L 278 570 L 277 569 L 276 569 L 275 569 L 274 569 L 273 569 L 272 569 L 271 569 L 270 569 L 269 569 L 268 569 L 267 569 L 266 569 L 265 569 L 264 569 L 263 569 L 262 569 L 261 569 L 260 569 L 259 569 L 258 568 L 257 568 L 256 568 L 255 568 L 254 568 L 253 568 L 252 568 L 251 568 L 250 568 L 249 568 L 248 568 L 247 568 L 246 568 L 245 568 L 244 567 L 243 567 L 336 568 Z" fill="#f24e2e" />
</svg>